<?xml version="1.0" ?><svg data-name="Layer 1" id="Layer_1" viewBox="0 0 512 512" xmlns="http://www.w3.org/2000/svg"><title/><rect fill="#181414" height="412.22" rx="55.43" width="412.22" x="49.89" y="49.89"/><circle cx="256" cy="256" fill="#65d36e" r="137.78"/><path d="M340.36,243a11.37,11.37,0,0,1-5.6-1.48c-75.58-42.55-158.87-17.21-159.7-17a11.45,11.45,0,0,1-6.89-21.83c3.77-1.19,93.37-28.71,177.82,18.84A11.45,11.45,0,0,1,340.36,243Z" fill="#181414"/><path d="M320.28,281.79a9.2,9.2,0,0,1-4.86-1.38c-61.94-38-132.83-15.05-133.54-14.81A9.3,9.3,0,0,1,176,248c3.23-1.08,79.69-26.1,149.2,16.6a9.3,9.3,0,0,1-4.87,17.22Z" fill="#181414"/><path d="M305.79,318.23a7.81,7.81,0,0,1-4.13-1.18c-51.67-31.95-114.38-12.78-115-12.58a7.87,7.87,0,0,1-4.75-15c2.84-.9,70.11-21.62,128,14.2a7.87,7.87,0,0,1-4.14,14.57Z" fill="#181414"/></svg>